<?xml version="1.0" encoding="UTF-8" standalone="no"?>
<!-- Created with Inkscape (http://www.inkscape.org/) -->

<svg
   xmlns:dc="http://purl.org/dc/elements/1.1/"
   xmlns:cc="http://creativecommons.org/ns#"
   xmlns:rdf="http://www.w3.org/1999/02/22-rdf-syntax-ns#"
   xmlns:svg="http://www.w3.org/2000/svg"
   xmlns="http://www.w3.org/2000/svg"
   xmlns:sodipodi="http://sodipodi.sourceforge.net/DTD/sodipodi-0.dtd"
   xmlns:inkscape="http://www.inkscape.org/namespaces/inkscape"
   version="1.0"
   width="653.09375"
   height="331.99863"
   viewBox="0 0 593.73109 309.21498"
   id="svg2"
   xml:space="preserve"
   style="overflow:visible"
   sodipodi:docname="Prof._Oetker-Logo.svg"
   inkscape:version="0.92.3 (2405546, 2018-03-11)"><metadata
     id="metadata887"><rdf:RDF><cc:Work
         rdf:about=""><dc:format>image/svg+xml</dc:format><dc:type
           rdf:resource="http://purl.org/dc/dcmitype/StillImage" /><dc:title /></cc:Work></rdf:RDF></metadata><sodipodi:namedview
     pagecolor="#ffffff"
     bordercolor="#666666"
     borderopacity="1"
     objecttolerance="10"
     gridtolerance="10"
     guidetolerance="10"
     inkscape:pageopacity="0"
     inkscape:pageshadow="2"
     inkscape:window-width="1859"
     inkscape:window-height="1025"
     id="namedview885"
     showgrid="false"
     inkscape:zoom="1.4746391"
     inkscape:cx="365.70733"
     inkscape:cy="177.88079"
     inkscape:window-x="61"
     inkscape:window-y="27"
     inkscape:window-maximized="1"
     inkscape:current-layer="svg2" /><defs
     id="defs26" /><path
     d="m 307.16398,0 c 96.58762,0 185.45046,21.983138 221.54355,36.821638 32.6749,13.434614 68.80102,27.588245 71.98321,65.918112 3.51609,41.9904 1.26248,85.81819 -13.19362,103.7642 -12.88685,16.04414 -29.36413,39.48618 -110.74168,71.71673 -81.38111,32.204 -169.79676,31.13401 -169.59146,30.94524 0.20294,0.18877 -88.21861,1.25876 -169.56431,-30.94524 C 56.223282,245.98918 39.748367,222.54809 26.823764,206.50395 12.404233,188.55794 10.148263,144.73015 13.634866,102.7407 16.84891,64.410832 52.972665,50.2572 85.647578,36.822586 121.74183,21.983138 210.6035,0 307.16398,0"
     id="Rahmen"
     style="fill:#ed1c24;stroke-width:1.11528862"
     inkscape:connector-curvature="0" /><path
     d="m 504.12393,214.57819 c 53.26616,-19.80711 60.044,-34.48436 65.30469,-41.60054 5.78591,-7.88452 8.1512,-33.85261 6.3879,-51.96083 C 574.29815,105.02106 571.19194,94.332561 542.70721,84.36213 513.26343,74.05875 404.67901,61.717838 304.8222,61.717838 c -99.83,0 -208.413198,12.340912 -237.855752,22.644292 -28.484733,9.970431 -31.59094,20.65798 -33.137341,36.65469 -1.732846,18.10917 0.631234,44.07631 6.420794,51.96083 5.224132,7.11713 11.9971,21.79438 65.305899,41.60054 33.00574,12.28495 66.99609,18.74377 90.1848,22.15199 1.03094,0.16505 1.80231,0.84992 1.80231,1.70363 v 0.18972 l -0.0305,1.48736 c 0,31.02207 48.04079,56.19241 107.31219,56.24553 59.30309,-0.0531 107.34022,-25.22346 107.34022,-56.24553 l -0.0305,-1.5974 v -0.0806 c 0,-0.88217 0.84205,-1.62395 1.94488,-1.73304 23.14484,-3.37786 57.10474,-9.8604 90.04466,-22.12163"
     id="weiss"
     style="fill:#ffffff;stroke-width:1.13343155"
     inkscape:connector-curvature="0" /><path
     d="m 311.76236,98.295691 c -19.75685,0 -27.34992,14.334349 -28.66464,33.140709 -0.14609,2.07072 -0.20749,4.18272 -0.2075,6.34357 -10e-6,5.92856 0.53073,11.55906 1.71928,16.57035 h 16.62964 c -0.88692,-4.62239 -1.03749,-10.34275 -1.0375,-16.54071 -10e-6,-2.19026 0.013,-4.32713 0.0889,-6.37321 0.43823,-12.284 2.61213,-21.40214 11.47179,-21.40214 8.17477,0 10.87418,9.12288 11.47178,21.40214 0.0996,2.04132 0.11857,4.18295 0.11857,6.37321 10e-6,6.19796 -0.32773,11.9373 -1.36357,16.54071 -1.51866,6.81169 -4.54674,11.23465 -10.22678,11.23464 -6.31749,0 -9.21608,-4.40398 -10.52322,-11.23464 l -16.62964,0.0297 c 3.18626,13.5048 11.18745,22.85462 27.15286,22.85463 15.86885,0 23.93737,-9.33486 27.15285,-22.85463 0.002,-0.01 -0.002,-0.0201 0,-0.0297 1.1963,-5.03361 1.74893,-10.65267 1.74893,-16.57035 1e-5,-2.1618 -0.0939,-4.28706 -0.23715,-6.34357 -1.32988,-18.79215 -9.01024,-33.140709 -28.66463,-33.140709 z m 119.25319,1.748929 v 31.39178 22.91392 20.83893 h 14.91035 v -16.92607 l 2.99393,-3.91286 2.2825,-2.99392 1.54143,2.99392 10.84928,20.83893 h 16.36285 l -11.38285,-20.83893 -7.79607,-14.28785 6.31392,-8.62607 10.40465,-14.22857 h -16.3925 l -9.98964,14.22857 -5.1875,7.41071 v -7.41071 -31.39178 z m -251.78637,0.38536 v 31.00642 22.91392 20.83893 h 25.87821 c 16.21771,0 23.77711,-6.59139 26.58963,-20.83893 h -17.40035 c -1.74727,5.71894 -5.23018,7.885 -11.8275,7.885 h -7.14392 v -7.885 -22.91392 -18.91214 h 6.81785 c 10.83837,0 13.24798,6.41851 13.66535,18.91214 h 17.16321 c -0.71712,-18.9572 -5.88897,-31.00642 -26.82677,-31.00642 z m 53.74248,31.00642 -17.16321,0.0296 c 0.0541,1.66758 0.0593,3.44711 0.0593,5.33572 -1e-5,7.87597 -0.35596,13.5731 -1.57107,17.54856 l 17.40035,-0.0296 c 0.97702,-4.92499 1.36357,-10.75205 1.36357,-17.54857 0,-1.82032 -0.0263,-3.6074 -0.0889,-5.33571 z m 170.20925,-26.41178 v 11.50143 h -7.55893 v 10.13785 h 7.55893 v 4.7725 22.91392 5.51357 c 0,11.76513 2.16322,15.32537 13.81357,15.32536 3.43572,0 6.44909,-0.34859 9.69321,-0.65215 v -10.34535 c -0.98936,0.10909 -2.17153,0.20751 -3.34964,0.2075 -4.3179,0 -5.27644,-1.83976 -5.27643,-6.34357 v -3.70536 -22.91392 -4.7725 h 8.62607 v -10.13785 h -8.62607 v -11.50143 z m -33.43714,8.9225 c -3.84834,0.0266 -7.29806,0.73988 -10.40464,2.25285 -3.07715,1.48167 -5.74763,3.62947 -7.97392,6.4325 -1.94741,2.45015 -3.51495,5.38813 -4.68358,8.80393 -0.16504,0.49325 -0.31872,1.0043 -0.47428,1.51178 -1.17812,4.0115 -1.80821,8.41359 -1.80821,13.25036 0,2.89313 0.21959,5.61911 0.65214,8.15178 0.51223,3.03069 1.33914,5.80739 2.46035,8.32964 2.06125,4.67361 5.04854,8.23242 8.9225,10.76036 3.90717,2.52794 8.47738,3.79428 13.75429,3.79428 4.53322,0 8.58005,-0.84873 12.12392,-2.57892 3.54576,-1.73304 6.36563,-4.1889 8.5075,-7.35143 2.19974,-3.1872 3.49904,-6.78632 3.88321,-10.93821 h -15.62178 c -0.63175,2.60762 -1.76317,4.6238 -3.40893,6.10642 -1.64861,1.50918 -3.55904,2.25287 -5.81,2.25286 -2.94057,0 -5.3644,-1.26967 -7.26249,-3.85357 -1.31757,-1.78236 -2.18716,-3.95175 -2.57893,-6.52143 -0.17548,-1.11078 -0.23715,-2.30313 -0.23715,-3.55714 v -0.65214 h 35.45285 v -2.40107 c -1e-5,-5.63453 -0.52575,-10.42362 -1.57107,-14.43607 -0.15983,-0.61781 -0.34224,-1.22939 -0.53357,-1.83786 -0.003,-0.009 0.003,-0.0207 0,-0.0296 -1.06471,-3.24859 -2.56455,-6.17726 -4.50571,-8.74464 -1.39726,-1.84308 -3.0933,-3.42245 -5.09857,-4.74286 -1.97589,-1.31946 -4.16137,-2.32969 -6.52143,-2.96428 -2.30883,-0.68582 -4.73646,-1.0375 -7.2625,-1.0375 z m 132.2664,0 c -3.81801,0.0266 -7.32772,0.73988 -10.43428,2.25285 -3.07717,1.48167 -5.71729,3.62947 -7.97393,6.4325 -1.94742,2.45015 -3.51492,5.38813 -4.68357,8.80393 -0.16316,0.49325 -0.32251,1.0043 -0.47428,1.51178 -1.18288,4.0115 -1.74893,8.41359 -1.74893,13.25036 -10e-6,2.89313 0.19469,5.61911 0.6225,8.15178 0.50748,3.03069 1.33914,5.80739 2.46036,8.32964 2.06029,4.67361 5.02079,8.23242 8.89285,10.76036 3.93373,2.52794 8.53548,3.79428 13.78393,3.79428 4.55978,0 8.58005,-0.84873 12.12392,-2.57892 3.52015,-1.73304 6.38959,-4.1889 8.53714,-7.35143 2.19595,-3.1872 3.4407,-6.78632 3.82393,-10.93821 h -15.59214 c -0.63175,2.60762 -1.76031,4.6238 -3.40893,6.10642 -1.65241,1.50918 -3.58653,2.25287 -5.81,2.25286 -2.93582,0 -5.36701,-1.26967 -7.23285,-3.85357 -1.32421,-1.78236 -2.20447,-3.95175 -2.60857,-6.52143 -0.1755,-1.11078 -0.26678,-2.30313 -0.26679,-3.55714 v -0.65214 h 35.51214 v -2.40107 c 10e-6,-5.63453 -0.5241,-10.42362 -1.60072,-14.43607 -0.15981,-0.61781 -0.34238,-1.22939 -0.53357,-1.83786 -0.003,-0.009 0.003,-0.0207 0,-0.0296 -1.04495,-3.24859 -2.5696,-6.17726 -4.53535,-8.74464 -1.37163,-1.84308 -3.06579,-3.42245 -5.09857,-4.74286 -1.97682,-1.31946 -4.15757,-2.32969 -6.52143,-2.96428 -2.30501,-0.68582 -4.70586,-1.0375 -7.23286,-1.0375 z m -234.91959,1.74893 c -6.13063,0 -10.31713,3.64346 -13.33928,9.24857 h -0.23715 v -7.73679 h -14.22856 v 14.22857 l 19.68285,-0.0296 c 1.88101,-1.04534 4.09048,-1.48215 6.19535,-1.48215 1.51486,-1e-5 3.11701,0.10126 4.62429,0.2075 v -14.22856 c -0.84708,-0.10909 -1.81723,-0.2075 -2.6975,-0.2075 z m -27.80499,15.74035 v 22.91392 20.83893 H 254.1663 V 154.35032 140.3589 c -1e-5,-4.59869 2.05507,-7.41806 4.80214,-8.9225 z m 321.18029,-15.74035 c -6.12302,0 -10.31715,3.64346 -13.33929,9.24857 h -0.23714 v -7.73679 h -14.22857 v 14.22857 l 19.68285,-0.0296 c 1.88008,-1.04534 4.08289,-1.48215 6.19536,-1.48215 1.51203,-1e-5 3.11225,0.10126 4.62428,0.2075 v -14.22856 c -0.85655,-0.10909 -1.80962,-0.2075 -2.69749,-0.2075 z m -27.805,15.74035 v 22.91392 20.83893 h 14.91036 V 154.35032 140.3589 c 0,-4.59869 2.02542,-7.41806 4.77249,-8.9225 z m -162.70961,-5.54321 c 2.69301,-1e-5 4.80523,1.02184 6.37322,3.1125 0.52834,0.69055 0.98532,1.50396 1.39321,2.43071 0.82714,1.84212 1.39701,4.11561 1.74893,6.8475 H 359.8727 c 0.30356,-2.69775 0.91111,-4.98545 1.83786,-6.8475 0.41833,-0.85088 0.92534,-1.60902 1.48214,-2.2825 1.75677,-2.17034 4.01625,-3.26072 6.75857,-3.26071 z m 132.23676,0 c 2.69203,-1e-5 4.83558,1.02184 6.37321,3.1125 0.52743,0.69055 1.00928,1.50396 1.42286,2.43071 0.82622,1.84212 1.42073,4.11561 1.74893,6.8475 h -19.56428 c 0.28361,-2.69775 0.88335,-4.98545 1.80821,-6.8475 0.41831,-0.85088 0.90613,-1.60902 1.4525,-2.2825 1.78615,-2.17034 4.0409,-3.26072 6.75857,-3.26071 z m -242.95281,36.51999 v 12.77607 h 12.77607 v -12.77607 z"
     id="Dr. Oetker"
     style="fill:#17469d;fill-opacity:1"
     inkscape:connector-curvature="0" /><path
     d="m 302.51321,192.85694 c -1.32041,0.0569 -2.83433,0.3339 -3.77057,0.19446 -0.88027,-0.10908 -1.81082,0 -2.60857,-0.19446 -0.6327,-0.13374 -1.26445,-0.0541 -1.98062,0.0569 -1.01592,0.13849 -1.86679,0.46575 -2.60857,0.95995 -0.76834,0.52267 -2.82674,3.24506 -3.21566,3.60457 -0.41357,0.35287 -1.73303,1.45416 -2.44541,2.17128 -0.71712,0.74084 -1.42665,2.33349 -1.56799,3.15969 -0.13375,0.84992 -0.0797,2.55451 0,2.96808 0.056,0.38133 0,0.98936 -0.10909,1.45321 -0.10908,0.4667 -0.43729,2.01003 -0.57104,2.19879 -0.14038,0.16316 -0.25042,1.32041 -0.30354,2.8571 -0.0313,1.53858 0.10909,2.50138 -0.11478,3.57516 -0.18971,1.06999 -0.27508,2.11437 -2.22629,4.2866 -1.91991,2.14092 -1.83738,2.49853 -2.00528,2.96713 -0.16505,0.4942 -0.27509,0.7949 0.21817,1.59265 0.52266,0.77308 0.88027,0.74083 1.32041,1.15441 0.38607,0.38417 1.89619,0.63459 1.37827,2.33633 -0.57862,1.7577 0.4373,1.86679 0.46196,2.49949 0.0323,0.63174 -0.16221,0.84992 -0.10909,1.40388 0.0854,0.54733 0.60329,1.26445 0.60329,1.78711 0,0.7949 0.0607,1.37258 -0.15841,3.56853 0,0 -0.27983,2.61331 3.37407,3.51919 3.62923,0.90684 6.13251,2.00528 7.00994,3.3257 0.85087,1.32041 0.95996,3.07716 0.49136,4.66981 -0.46195,1.62301 -1.48261,3.21566 -3.98115,4.97241 -2.58391,1.81841 -7.08773,3.32569 -12.47466,6.35163 -5.35658,3.01646 -6.29282,4.47441 -7.14369,5.54725 -0.6327,0.7949 -1.59265,2.63703 -1.7577,3.76772 -0.10909,0.93055 -0.35667,2.38945 1.28816,3.13029 1.84212,0.82715 3.0525,0.54922 3.0525,0.54922 h 64.5958 c 0,0 2.69774,0.32916 4.07127,-1.34412 1.42855,-1.73304 0.21817,-5.08719 -0.11003,-5.90865 -0.41358,-0.96091 -1.78616,-2.61332 -3.16159,-3.76583 -1.53669,-1.2929 -6.3763,-4.28944 -8.9308,-5.71894 -2.11437,-1.14967 -9.17838,-5.16023 -11.98046,-8.4328 -2.5545,-2.99653 -3.57042,-6.65043 -2.74895,-8.68227 0.85845,-2.00433 2.42075,-2.27941 3.57611,-2.17507 0.95995,0.0854 3.37881,0.63649 4.25624,0.46859 1.15441,-0.24283 2.14377,-0.627 3.16064,-2.41601 1.02066,-1.7596 3.95649,-2.36194 4.58918,-2.80492 0.63365,-0.40884 3.818,-2.44542 3.984,-5.49318 0.24758,-4.06652 -1.34412,-4.12059 -1.84212,-8.38158 -0.49326,-4.26003 -1.28816,-4.91929 -2.88271,-6.81548 -1.26444,-1.48262 -2.36289,-4.88799 -2.88745,-6.12777 -1.04058,-2.49948 -3.24032,-3.92898 -4.25624,-4.14715 -0.98936,-0.24758 -3.98115,-1.67708 -5.33002,-3.16254 -1.12596,-1.23409 -2.99749,-3.10562 -4.61385,-3.46323 -1.62396,-0.35192 -4.42698,-0.43729 -5.41824,-0.95996 -0.98936,-0.52266 -2.74706,-1.10129 -3.0212,-1.01592 -0.30544,0.0512 0.21722,-0.11193 -1.0956,-0.0873 m -76.52788,44.40357 c 0,-28.18869 34.84102,-51.054 77.81604,-51.054 43.00158,0 77.84355,22.86531 77.84355,51.054 0,28.19628 -34.84197,51.06159 -77.84355,51.06159 -42.97407,0 -77.81604,-22.86531 -77.81604,-51.06159 z"
     id="Kopf"
     style="fill:#ed1c24;fill-rule:evenodd"
     inkscape:connector-curvature="0" /><g
     inkscape:groupmode="layer"
     id="layer2"
     inkscape:label="BG"
     style="display:inline"
     transform="translate(115.00075,-8.3823686)"><rect
       style="overflow:visible;opacity:1;fill:#ffffff;fill-opacity:1;fill-rule:evenodd;stroke:none;stroke-width:0.98877043;stroke-linecap:butt;stroke-linejoin:round;stroke-miterlimit:1;stroke-dasharray:none;stroke-dashoffset:0;stroke-opacity:1"
       id="rect893"
       width="109.44892"
       height="95.070244"
       x="50.719597"
       y="96.712112"
       ry="5.5511889" /></g><g
     inkscape:groupmode="layer"
     id="layer1"
     inkscape:label="FG"
     style="display:inline"
     transform="translate(115.00075,-8.3823686)"><text
   xml:space="preserve"
   style="font-style:normal;font-variant:normal;font-weight:bold;font-stretch:normal;font-size:90.0749588px;line-height:125%;font-family:Sans;-inkscape-font-specification:'Sans Bold';letter-spacing:0px;word-spacing:0px;overflow:visible;fill:#17469d;fill-opacity:1;stroke:none;stroke-width:0.93828094px;stroke-linecap:butt;stroke-linejoin:miter;stroke-opacity:1"
   x="-75.17836"
   y="159.74194"
   id="text891"
   transform="scale(0.86745209,1.1528014)"><tspan
     sodipodi:role="line"
     id="tspan889"
     x="-75.17836"
     y="159.74194"
     style="font-style:normal;font-variant:normal;font-weight:bold;font-stretch:normal;font-size:90.0749588px;font-family:Sans;-inkscape-font-specification:'Sans Bold';fill:#17469d;fill-opacity:1;stroke-width:0.93828094px">Prof.</tspan></text>

</g></svg>